<?xml version="1.0" standalone="no"?><!DOCTYPE svg PUBLIC "-//W3C//DTD SVG 1.1//EN"
  "http://www.w3.org/Graphics/SVG/1.1/DTD/svg11.dtd">
<svg t="1604832047463" class="icon" viewBox="0 0 1024 1024" version="1.1" xmlns="http://www.w3.org/2000/svg" p-id="6169"
     width="200" height="200">
  <defs>
    <style type="text/css"></style>
  </defs>
  <path
    d="M326.285714 336.571429q-5.714286-14.285714-19.428571-20t-28 0q-61.714286 25.142857-109.142857 72.571428T97.142857 498.285714q-5.714286 14.285714 0 28t20 19.428572q7.428571 2.857143 13.714286 2.857143 24 0 34.285714-22.857143 19.428571-48 56.285714-84.857143T306.285714 384.571429q14.285714-6.285714 20-20t0-28z m538.285715-203.428572l26.285714 26.285714-139.428572 138.857143 38.857143 38.857143q10.857143 10.857143 10.857143 26t-10.857143 26l-36.571428 36.571429q50.857143 92 50.857143 196 0 81.714286-31.714286 156.285714t-85.714286 128.571429-128.571428 85.714285T402.285714 1024t-156.285714-31.714286-128.571429-85.714285-85.714285-128.571429T0 621.714286t31.714286-156.285715 85.714285-128.571428 128.571429-85.714286T402.285714 219.428571q104 0 196 50.857143l36.571429-36.571428q10.857143-10.857143 26-10.857143t26 10.857143l38.857143 38.857143z m4.571428-32q-5.714286 5.714286-12.571428 5.714286-7.428571 0-13.142858-5.714286l-52-51.428571q-5.142857-5.714286-5.142857-13.142857t5.142857-13.142858q5.714286-5.142857 13.142858-5.142857t13.142857 5.142857l51.428571 52q5.714286 5.142857 5.714286 12.857143t-5.714286 12.857143z m131.428572 131.428572q-6.285714 5.142857-13.142858 5.142857t-13.142857-5.142857l-51.428571-52q-5.714286-5.142857-5.714286-12.857143t5.714286-12.857143q5.142857-5.714286 12.857143-5.714286t12.857143 5.714286l52 51.428571q5.142857 5.714286 5.142857 13.142857t-5.142857 13.142858z m23.428571-104.571429q0 8-5.142857 13.142857t-13.142857 5.142857h-54.857143q-8 0-13.142857-5.142857t-5.142857-13.142857 5.142857-13.142857 13.142857-5.142857h54.857143q8 0 13.142857 5.142857t5.142857 13.142857zM914.285714 18.285714v54.857143q0 8-5.142857 13.142857t-13.142857 5.142857-13.142857-5.142857-5.142857-13.142857V18.285714q0-8 5.142857-13.142857t13.142857-5.142857 13.142857 5.142857 5.142857 13.142857z m86.285715 31.428572l-52 51.428571q-5.714286 5.714286-12.571429 5.714286-7.428571 0-13.142857-5.714286-5.714286-5.142857-5.714286-12.857143t5.714286-12.857143l51.428571-52q5.714286-5.142857 13.142857-5.142857t13.142858 5.142857q5.142857 5.714286 5.142857 13.142858t-5.142857 13.142857z"
    p-id="6170"></path>
</svg>
