<?xml version="1.0" standalone="no"?><!DOCTYPE svg PUBLIC "-//W3C//DTD SVG 1.1//EN"
  "http://www.w3.org/Graphics/SVG/1.1/DTD/svg11.dtd">
<svg t="1604726620251" class="icon" viewBox="0 0 1024 1024" version="1.1" xmlns="http://www.w3.org/2000/svg" p-id="4599"
     width="200" height="200">
  <defs>
    <style type="text/css"></style>
  </defs>
  <path
    d="M778.24 219.0848A106.752 106.752 0 0 0 671.6928 112.64H352.3072A106.752 106.752 0 0 0 245.76 219.0848c-180.992 0-159.6928 0-159.6928 106.496A160.1536 160.1536 0 0 0 245.76 485.2736a45.312 45.312 0 0 0 18.6368-2.6624c34.6112 103.8336 114.4832 199.68 215.6032 212.9408v157.0816H405.504c-15.9232 0-26.5728 15.9744-26.5728 31.8976S389.5808 916.48 405.504 916.48h212.992c15.9232 0 26.5728-15.9744 26.5728-31.9488s-10.6496-31.8976-26.5728-31.8976h-74.5472v-157.0816c101.12-13.312 178.3296-109.1072 215.6032-212.9408 5.12 0 13.312 2.6624 18.6368 2.6624a160.1536 160.1536 0 0 0 159.6928-159.6928c0-106.496 21.2992-106.496-159.6928-106.496zM245.76 432.0256a106.7008 106.7008 0 0 1-106.3936-106.4448c0-58.5728 0-53.248 106.4448-53.248zM714.2912 378.88c0 117.0944-85.1456 255.5392-202.2912 255.5392S309.7088 495.9232 309.7088 378.88V219.0848c0-26.624 15.9744-42.5984 42.5984-42.5984h319.3856c26.624 0 42.5984 15.9744 42.5984 42.5984V378.88zM778.24 432.0256V272.3328c106.4448 0 106.4448-5.12 106.4448 53.248A106.7008 106.7008 0 0 1 778.24 432.0256z"
    p-id="4600"></path>
</svg>
