<?xml version="1.0" standalone="no"?><!DOCTYPE svg PUBLIC "-//W3C//DTD SVG 1.1//EN"
  "http://www.w3.org/Graphics/SVG/1.1/DTD/svg11.dtd">
<svg t="1604831318208" class="icon" viewBox="0 0 1024 1024" version="1.1" xmlns="http://www.w3.org/2000/svg" p-id="3344"
     width="200" height="200">
  <defs>
    <style type="text/css"></style>
  </defs>
  <path
    d="M298.666667 85.333333h85.333333a85.333333 85.333333 0 0 1 85.333333 85.333334v682.666666a85.333333 85.333333 0 0 1-85.333333 85.333334H298.666667a85.333333 85.333333 0 0 1-85.333334-85.333334V170.666667a85.333333 85.333333 0 0 1 85.333334-85.333334z m341.333333 0h85.333333a85.333333 85.333333 0 0 1 85.333334 85.333334v682.666666a85.333333 85.333333 0 0 1-85.333334 85.333334h-85.333333a85.333333 85.333333 0 0 1-85.333333-85.333334V170.666667a85.333333 85.333333 0 0 1 85.333333-85.333334zM298.666667 170.666667v682.666666h85.333333V170.666667H298.666667z m341.333333 0v682.666666h85.333333V170.666667h-85.333333z"
    p-id="3345"></path>
</svg>
