<?xml version="1.0" standalone="no"?><!DOCTYPE svg PUBLIC "-//W3C//DTD SVG 1.1//EN"
  "http://www.w3.org/Graphics/SVG/1.1/DTD/svg11.dtd">
<svg t="1606396784796" class="icon" viewBox="0 0 1041 1024" version="1.1" xmlns="http://www.w3.org/2000/svg" p-id="4968"
     width="203.3203125" height="200">
  <defs>
    <style type="text/css"></style>
  </defs>
  <path
    d="M55.634646 16.125984h630.525984C707.930709 16.125984 725.669291 33.864567 725.669291 55.634646v912.730708c0 21.770079-17.738583 39.508661-39.508661 39.508662H55.634646c-21.770079 0-39.508661-17.738583-39.508662-39.508662V55.634646C16.125984 33.864567 33.864567 16.125984 55.634646 16.125984z"
    fill="#FFFFFF" p-id="4969"></path>
  <path
    d="M686.16063 1024H55.634646c-30.63937 0-55.634646-24.995276-55.634646-55.634646V55.634646C0 24.995276 24.995276 0 55.634646 0h630.525984C716.8 0 741.795276 24.995276 741.795276 55.634646v912.730708c0 30.63937-24.995276 55.634646-55.634646 55.634646zM55.634646 32.251969C42.733858 32.251969 32.251969 42.733858 32.251969 55.634646v912.730708c0 12.900787 10.48189 23.382677 23.382677 23.382677h630.525984c12.900787 0 23.382677-10.48189 23.382677-23.382677V55.634646C709.543307 42.733858 699.061417 32.251969 686.16063 32.251969H55.634646z"
    fill="" p-id="4970"></path>
  <path
    d="M275.754331 866.771654c-4.031496 0-8.062992-1.612598-11.288189-4.837796L171.741732 770.015748c-6.450394-6.450394-6.450394-16.125984 0-22.576378 6.450394-6.450394 16.125984-6.450394 22.576378 0l92.72441 92.72441c6.450394 6.450394 6.450394 16.125984 0 22.576377-3.225197 2.418898-7.256693 4.031496-11.288189 4.031497z"
    fill="" p-id="4971"></path>
  <path
    d="M181.417323 869.190551c-4.031496 0-8.062992-1.612598-11.288189-4.837795-6.450394-6.450394-6.450394-16.125984 0-22.576378l96.755905-96.755906c6.450394-6.450394 16.125984-6.450394 22.576378 0 6.450394 6.450394 6.450394 16.125984 0 22.576378l-96.755905 96.755906c-3.225197 3.225197-7.256693 4.837795-11.288189 4.837795z"
    fill="" p-id="4972"></path>
  <path
    d="M420.08189 721.637795l541.833071-541.833071c8.869291-7.256693 22.576378-6.450394 29.83307 2.418898l26.607875 26.607874c8.869291 7.256693 9.675591 20.96378 2.418897 29.833071L478.941732 780.497638l-83.855118 24.188976 24.995276-83.048819z"
    fill="#7BAEEF" p-id="4973"></path>
  <path
    d="M395.086614 820.812598c-4.031496 0-8.062992-1.612598-11.288189-4.837795-4.031496-4.031496-5.644094-10.48189-4.031496-16.125984l24.995276-83.048819c0.806299-2.418898 2.418898-4.837795 4.031496-6.450394l541.833071-541.833071 0.806299-0.806299c15.319685-12.900787 38.702362-10.48189 51.603149 4.031496l25.801575 25.801575c14.513386 12.900787 16.932283 36.283465 4.031496 51.60315 0 0.806299-0.806299 0.806299-0.806299 0.806299L490.229921 791.785827c-1.612598 1.612598-4.031496 3.225197-7.256693 4.031496l-83.855118 24.188976c-0.806299 0.806299-2.418898 0.806299-4.031496 0.806299z m39.508662-91.111811L419.275591 781.303937l51.603149-15.319685 538.607874-538.607874c1.612598-2.418898 0.806299-4.837795-0.806299-7.256693l-0.806299-0.806299-26.607874-26.607874-0.806299-0.806299c-1.612598-1.612598-4.837795-2.418898-7.256693-0.8063L434.595276 729.700787z"
    fill="" p-id="4974"></path>
  <path
    d="M838.551181 528.932283c-4.031496 0-8.062992-1.612598-11.288189-4.837795-6.450394-6.450394-6.450394-16.125984 0-22.576378l145.133858-145.133858L878.866142 262.853543c-6.450394-6.450394-6.450394-16.125984 0-22.576378 6.450394-6.450394 16.125984-6.450394 22.576378 0l105.625197 105.625197c3.225197 3.225197 4.837795 7.256693 4.837795 11.288189 0 4.031496-1.612598 8.062992-4.837795 11.288189l-156.422048 156.422047c-3.225197 3.225197-8.062992 4.031496-12.094488 4.031496zM588.598425 191.092913H159.647244c-8.869291 0-16.125984-7.256693-16.125984-16.125984s7.256693-16.125984 16.125984-16.125984H588.598425c8.869291 0 16.125984 7.256693 16.125984 16.125984s-7.256693 16.125984-16.125984 16.125984zM588.598425 283.817323H159.647244c-8.869291 0-16.125984-7.256693-16.125984-16.125984s7.256693-16.125984 16.125984-16.125985H588.598425c8.869291 0 16.125984 7.256693 16.125984 16.125985s-7.256693 16.125984-16.125984 16.125984zM588.598425 380.573228H159.647244c-8.869291 0-16.125984-7.256693-16.125984-16.125984s7.256693-16.125984 16.125984-16.125984H588.598425c8.869291 0 16.125984 7.256693 16.125984 16.125984s-7.256693 16.125984-16.125984 16.125984z"
    fill="" p-id="4975"></path>
  <path
    d="M588.598425 473.297638H159.647244c-8.869291 0-16.125984-7.256693-16.125984-16.125984s7.256693-16.125984 16.125984-16.125985H588.598425c8.869291 0 16.125984 7.256693 16.125984 16.125985s-7.256693 16.125984-16.125984 16.125984z"
    fill="" p-id="4976"></path>
  <path
    d="M356.384252 577.310236H159.647244c-8.869291 0-16.125984-7.256693-16.125984-16.125984s7.256693-16.125984 16.125984-16.125984h195.930709c8.869291 0 16.125984 7.256693 16.125984 16.125984s-6.450394 16.125984-15.319685 16.125984z"
    fill="" p-id="4977"></path>
</svg>
