<?xml version="1.0" standalone="no"?><!DOCTYPE svg PUBLIC "-//W3C//DTD SVG 1.1//EN"
  "http://www.w3.org/Graphics/SVG/1.1/DTD/svg11.dtd">
<svg t="1606396882071" class="icon" viewBox="0 0 1057 1024" version="1.1" xmlns="http://www.w3.org/2000/svg" p-id="6587"
     width="206.4453125" height="200">
  <defs>
    <style type="text/css"></style>
  </defs>
  <path
    d="M198.512734 766.18563h-66.170911a132.341823 132.341823 0 0 1-132.341823-132.341822v-198.512734a132.341823 132.341823 0 0 1 132.341823-132.341823h66.170911L482.165374 19.851273a63.818168 63.818168 0 0 1 92.49223 0 59.99496 59.99496 0 0 1 19.851273 46.246115v891.616269a62.421226 62.421226 0 0 1-66.170911 66.170912 70.802875 70.802875 0 0 1-39.629024-13.234183z m548.189239-6.617091c-19.851273 6.617091-39.629024 6.617091-46.246115-13.234182a34.850013 34.850013 0 0 1 13.234183-46.246115 227.922028 227.922028 0 0 0-6.617091-396.290236 37.864466 37.864466 0 0 1-13.234183-46.246114 34.850013 34.850013 0 0 1 46.246115-13.234183 299.901275 299.901275 0 0 1 151.899003 257.331322 308.282924 308.282924 0 0 1-145.576005 257.919508z m132.341823 92.49223a33.085456 33.085456 0 0 1-39.629024-52.863206 366.14571 366.14571 0 0 0 151.899003-290.637348 378.644659 378.644659 0 0 0-151.899003-297.254438 33.085456 33.085456 0 1 1 39.629024-52.863206 416.803218 416.803218 0 0 1 178.367368 343.42703 438.051433 438.051433 0 0 1-178.955554 350.191168z"
    p-id="6588"></path>
</svg>
