<?xml version="1.0" standalone="no"?><!DOCTYPE svg PUBLIC "-//W3C//DTD SVG 1.1//EN"
  "http://www.w3.org/Graphics/SVG/1.1/DTD/svg11.dtd">
<svg t="1604726497027" class="icon" viewBox="0 0 1024 1024" version="1.1" xmlns="http://www.w3.org/2000/svg" p-id="3999"
     width="200" height="200">
  <defs>
    <style type="text/css"></style>
  </defs>
  <path
    d="M704.387879 183.637333c21.721212 0 40.339394 18.618182 43.442424 40.339394v55.854546c58.957576 15.515152 105.50303 68.266667 105.50303 133.430303 0 71.369697-55.854545 130.327273-124.121212 136.533333-34.133333 77.575758-102.4 133.430303-186.181818 142.739394v111.709091h83.781818c15.515152 0 31.030303 12.412121 31.030303 31.030303 0 15.515152-12.412121 31.030303-31.030303 31.030303h-226.521212c-15.515152 0-31.030303-12.412121-31.030303-31.030303 0-15.515152 12.412121-31.030303 31.030303-31.030303h83.781818v-114.812121c-77.575758-12.412121-142.739394-62.060606-176.872727-133.430303l-3.10303-6.206061c-74.472727 0-133.430303-62.060606-133.430303-136.533333 0-65.163636 46.545455-121.018182 108.60606-136.533334h6.206061v-49.648484c0-24.824242 18.618182-43.442424 40.339394-43.442425h378.569697z m-173.769697 127.224243c-9.309091-18.618182-24.824242-21.721212-31.030303-3.103031v3.103031l-27.927273 55.854545-58.957576 9.309091c-18.618182 3.10303-24.824242 18.618182-12.412121 31.030303l3.10303 3.10303 43.442425 46.545455-9.309091 65.163636c-3.10303 21.721212 6.206061 31.030303 24.824242 21.721212h3.10303l52.751516-31.030303 52.751515 31.030303c18.618182 9.309091 27.927273 3.10303 27.927272-18.618181v-3.103031l-9.30909-65.163636 43.442424-46.545455c15.515152-15.515152 9.309091-27.927273-9.309091-34.133333h-3.10303l-65.163637-6.20606-24.824242-58.957576z m-248.242424 27.927272c-31.030303 9.309091-52.751515 37.236364-52.751516 74.472728 0 34.133333 21.721212 65.163636 55.854546 74.472727 0-6.206061 0-12.412121-3.10303-18.618182v-130.327273z m465.454545 6.206061v142.739394c27.927273-12.412121 46.545455-40.339394 46.545455-71.369697 0-31.030303-15.515152-55.854545-40.339394-68.266667l-6.206061-3.10303z"
    p-id="4000"></path>
</svg>
