<?xml version="1.0" standalone="no"?><!DOCTYPE svg PUBLIC "-//W3C//DTD SVG 1.1//EN"
  "http://www.w3.org/Graphics/SVG/1.1/DTD/svg11.dtd">
<svg t="1604726501274" class="icon" viewBox="0 0 1024 1024" version="1.1" xmlns="http://www.w3.org/2000/svg" p-id="4136"
     width="200" height="200">
  <defs>
    <style type="text/css"></style>
  </defs>
  <path
    d="M161.792 402.752a136.448 136.448 0 0 1-30.528-48.32c-11.52-30.08-14.72-58.24-14.72-98.432H166.4V192H116.48c-42.688 0-64 21.312-64 64 0 34.24 0 128 64 192 32 32 66.304 55.488 107.456 67.2l-13.248-74.24a220.352 220.352 0 0 1-48.96-38.208z m0 0a136.448 136.448 0 0 1-30.528-48.32c-11.52-30.08-14.72-58.24-14.72-98.432H166.4V192H116.48c-42.688 0-64 21.312-64 64 0 34.24 0 128 64 192 32 32 66.304 55.488 107.456 67.2l-13.248-74.24a220.352 220.352 0 0 1-48.96-38.208zM862.208 402.752c13.184-13.184 23.232-29.376 30.528-48.32 11.52-30.08 14.72-58.24 14.72-98.432H857.6V192h49.792c42.688 0 64 21.312 64 64 0 34.24 0 128-64 192-32 32-66.304 55.488-107.456 67.2l13.248-74.24c16.32-9.024 32.256-21.568 48.96-38.208z m0 0c13.184-13.184 23.232-29.376 30.528-48.32 11.52-30.08 14.72-58.24 14.72-98.432H857.6V192h49.792c42.688 0 64 21.312 64 64 0 34.24 0 128-64 192-32 32-66.304 55.488-107.456 67.2l13.248-74.24c16.32-9.024 32.256-21.568 48.96-38.208z"
    fill="#5A5A5A" p-id="4137"></path>
  <path d="M480 768h64v192h-64z" fill="#5A5A5A" p-id="4138"></path>
  <path
    d="M224.448 438.144l0.32 3.648C235.776 627.008 363.264 768 512 768c148.736 0 276.224-140.992 287.552-329.856a65.28 65.28 0 0 0 0.448-7.616V128a64 64 0 0 0-64-64h-448a64 64 0 0 0-64 64v302.528c0 2.56 0.128 5.12 0.448 7.68z m-63.552 7.488a129.28 129.28 0 0 1-0.896-15.104V128a128 128 0 0 1 128-128h448a128 128 0 0 1 128 128v302.528c0 5.12-0.32 10.176-0.896 15.104C850.304 661.568 697.984 832 512 832c-185.984 0-338.24-170.432-351.104-386.368zM384 960h256a32 32 0 1 1 0 64H384a32 32 0 1 1 0-64z"
    fill="#5A5A5A" p-id="4139"></path>
</svg>
