<?xml version="1.0" standalone="no"?><!DOCTYPE svg PUBLIC "-//W3C//DTD SVG 1.1//EN"
  "http://www.w3.org/Graphics/SVG/1.1/DTD/svg11.dtd">
<svg t="1604726321721" class="icon" viewBox="0 0 1024 1024" version="1.1" xmlns="http://www.w3.org/2000/svg" p-id="2848"
     width="200" height="200">
  <defs>
    <style type="text/css"></style>
  </defs>
  <path
    d="M352 512A224 224 0 1 1 576 288 224 224 0 0 1 352 512z m0-384A160 160 0 1 0 512 288 160 160 0 0 0 352 128zM800 448A160 160 0 1 1 960 288 160 160 0 0 1 800 448z m0-256A96 96 0 1 0 896 288 96 96 0 0 0 800 192z"
    p-id="2849"></path>
  <path
    d="M672 960a32 32 0 0 1-32-32 288 288 0 0 0-576 0 32 32 0 0 1-32 32 32 32 0 0 1-32-32 352 352 0 0 1 704 0 32 32 0 0 1-32 32z"
    p-id="2850"></path>
  <path d="M672 960H32a32 32 0 0 1 0-64h640a32 32 0 0 1 0 64z" p-id="2851"></path>
  <path
    d="M992 832h-192a32 32 0 0 1 0-64H960v-32A160 160 0 0 0 800 576a154.24 154.24 0 0 0-88.32 26.88 32 32 0 0 1-35.84-53.76A225.92 225.92 0 0 1 800 512a224 224 0 0 1 224 224v64a32 32 0 0 1-32 32z"
    p-id="2852"></path>
</svg>
