<?xml version="1.0" standalone="no"?><!DOCTYPE svg PUBLIC "-//W3C//DTD SVG 1.1//EN"
  "http://www.w3.org/Graphics/SVG/1.1/DTD/svg11.dtd">
<svg t="1604722921978" class="icon" viewBox="0 0 1024 1024" version="1.1" xmlns="http://www.w3.org/2000/svg" p-id="3042"
     width="200" height="200">
  <defs>
    <style type="text/css"></style>
  </defs>
  <path
    d="M861.021091 884.736a69.725091 69.725091 0 0 1-69.841455-69.469091 69.725091 69.725091 0 0 1 69.841455-69.445818 69.725091 69.725091 0 0 1 69.841454 69.445818 69.725091 69.725091 0 0 1-69.841454 69.469091z m-23.272727-234.402909a23.249455 23.249455 0 0 1 23.272727-23.156364c12.846545 0 23.272727 10.379636 23.272727 23.156364v28.113454a139.124364 139.124364 0 0 0-23.272727-2.094545c-7.936 0-15.685818 0.814545-23.272727 2.094545v-28.113454z m93.114181 44.753454v-44.753454a69.655273 69.655273 0 0 0-69.841454-69.469091 69.678545 69.678545 0 0 0-69.841455 69.469091v44.753454c-41.704727 24.040727-69.841455 68.794182-69.841454 120.180364 0 76.730182 62.533818 138.914909 139.682909 138.914909S1000.727273 891.997091 1000.727273 815.243636c0-51.362909-28.136727-96.116364-69.864728-120.157091z m-665.204363-347.461818c0-114.874182 94.021818-208.337455 209.547636-208.337454 115.549091 0 209.547636 93.463273 209.547637 208.360727 0 114.897455-93.998545 208.384-209.547637 208.384-115.525818 0-209.547636-93.486545-209.547636-208.384zM711.447273 625.152a460.567273 460.567273 0 0 0-90.112-40.983273c82.315636-50.408727 136.517818-141.777455 133.12-245.713454C749.754182 194.792727 630.574545 75.52 486.167273 70.027636c-159.301818-6.050909-290.350545 120.552727-290.350546 277.620364 0 100.119273 53.410909 187.578182 133.282909 236.497455-149.690182 49.314909-265.634909 171.962182-304.709818 325.352727-4.677818 18.362182 5.701818 38.516364 24.087273 43.450182 19.223273 5.12 38.423273-6.190545 42.961454-24.343273 42.821818-171.287273 198.469818-298.635636 383.767273-298.635636 73.425455 0 142.033455 20.177455 200.936727 55.04 16.896 10.007273 38.679273 4.282182 48.244364-12.8a34.909091 34.909091 0 0 0-12.939636-47.080728z"
    p-id="3043"></path>
</svg>
