<?xml version="1.0" standalone="no"?><!DOCTYPE svg PUBLIC "-//W3C//DTD SVG 1.1//EN"
  "http://www.w3.org/Graphics/SVG/1.1/DTD/svg11.dtd">
<svg t="1604726665888" class="icon" viewBox="0 0 1024 1024" version="1.1" xmlns="http://www.w3.org/2000/svg" p-id="4796"
     width="200" height="200">
  <defs>
    <style type="text/css"></style>
  </defs>
  <path
    d="M914.89714 119.963209 816.70477 119.963209 816.70477 107.557668c0-27.174919-22.069645-49.202609-49.293683-49.202609L251.827469 58.355059c-27.225061 0-49.294706 22.028713-49.294706 49.202609l0 12.405541-93.430926 0c-58.533115 0-106.154715 47.532573-106.155738 105.95824l0 122.608455c0 121.417327 97.430006 220.547045 218.3541 223.589334 35.525098 87.237877 118.201076 148.312884 219.426525 148.312884l24.245194 0c0.089028 0 0.161682 0.071631 0.161682 0.161682L465.133599 867.398336c0 0.089028-0.071631 0.161682-0.161682 0.161682L316.640614 867.560018c-26.131147 0-47.495734 20.3597-49.043996 46.052872-1.708921 28.366048 21.61325 52.033074 50.082652 52.033074l392.032698 0c26.128077 0 47.495734-20.3597 49.042973-46.052872 1.708921-28.366048-21.614274-52.033074-50.083675-52.033074L563.561329 867.560018c-0.089028 0-0.161682-0.071631-0.161682-0.161682l0.001023-146.808624c0-0.088004 0.070608-0.159636 0.158612-0.159636 101.106746-0.065492 192.155415-61.10059 231.946676-148.257625 0.490164 0.005117 0.977257 0.01842 1.467421 0.01842 123.55706 0 224.077451-100.333126 224.077451-223.660966L1021.050832 225.921449C1021.052878 167.495782 973.433324 119.963209 914.89714 119.963209L914.89714 119.963209zM62.943564 348.529905 62.943564 225.922473c0-25.405623 20.707624-46.073338 46.158273-46.073338l93.430926 0 0 295.206442c0 12.149714 0.836041 24.087605 2.433422 35.763528C124.886335 500.031411 62.943564 431.368588 62.943564 348.529905L62.943564 348.529905zM686.004009 278.523481l-79.974449 83.101673c-0.016373 0.047072-0.028653 0.086981-0.044002 0.134053l14.520715 113.169479c0.017396 0.125867-0.110517 0.218988-0.225127 0.166799l-105.946984-48.40136c-0.046049 0-0.088004 0-0.13303 0l-105.945961 48.40136c-0.11461 0.052189-0.242524-0.041956-0.226151-0.166799l14.521738-113.169479c-0.016373-0.047072-0.028653-0.086981-0.044002-0.134053l-79.976496-83.101673c-0.088004-0.092098-0.037862-0.246617 0.089028-0.271176l114.900913-21.509896c0.038886-0.026606 0.071631-0.051165 0.110517-0.077771l56.638975-100.225679 56.638975 100.225679c0.038886 0.026606 0.072655 0.051165 0.11154 0.077771l114.900913 21.509896C686.042895 278.276864 686.093037 278.431384 686.004009 278.523481L686.004009 278.523481zM961.055412 348.529905c0 84.618213-64.627926 154.452721-147.202597 162.913417 1.86958-11.822257 2.851954-23.917736 2.851954-36.227086L816.70477 179.849134l98.19237 0c25.452695 0 46.158273 20.667715 46.158273 46.071292L961.055412 348.529905 961.055412 348.529905z"
    p-id="4797"></path>
</svg>
